<svg height="65" width="65" fill="#000000" xmlns="http://www.w3.org/2000/svg" xmlns:xlink="http://www.w3.org/1999/xlink" version="1.1" style="" xml:space="preserve"><rect id="backgroundrect" width="100%" height="100%" x="0" y="0" fill="none" stroke="none"/><g class="currentLayer" style=""><title>Layer 1</title><g id="svg_1" class="selected" fill-opacity="1" fill="#ac2332"><g id="svg_2" fill="#ac2332"><g id="svg_3" fill="#ac2332"><path d="M58.8,51.7c0.4,1.5-0.1,3.2-1.5,4.1l-11.8,8.1c-1.6,1.2-4,0.8-5.2-1c-1.2-1.8-0.7-4.1,1-5.2l9.5-6.5L50.5,50l-3.9-1.5     l-8.8,3.7c-2,0.8-4.1-0.2-4.9-2c-0.8-1.9,0.1-4.1,2-4.9l8.7-3.6c-1.4-6.1-1.9-8.6-2.2-9.6l-9.9-2.8c-2-0.6-3.2-2.6-2.6-4.6     c0.6-2,2.6-3.2,4.7-2.6l12,3.4l5.5-3.7L48.7,17c-1-1.9-0.2-4.1,1.6-5.1c1.8-0.9,4.1-0.3,5.1,1.6l3.9,7.6c0.9,1.7,0.3,3.8-1.2,4.8     l-5.2,3.6C53.4,31.2,54.7,36.3,58.8,51.7z" id="svg_4" fill="#ac2332"/></g><g id="svg_5" fill="#ac2332"><path d="M34.1,15.1c0-3.5,2.8-6.3,6.3-6.3c3.5,0,6.3,2.8,6.3,6.3s-2.8,6.3-6.3,6.3C36.9,21.3,34.1,18.5,34.1,15.1z" id="svg_6" fill="#ac2332"/></g></g><g id="svg_7" fill="#ac2332"><g id="svg_8" fill="#ac2332"><path d="M28,22c-0.4,0.5-0.7,1.1-0.9,1.8l-8.9-5.4c-3.7,4.1-10.3,1.1-12.3-4.1c-2.6-6.7,5-9.7,10.7-5.8c3,2.1,4.1,5.4,2.8,8.2     L28,22z" id="svg_9" fill="#ac2332"/></g><g id="svg_10" fill="#ac2332"><path d="M27.6,7.3v0.9l3.6,1.9c0.5,0.3,0.7,0.9,0.4,1.4c-0.3,0.5-0.9,0.7-1.4,0.4l-3.9-2.1h-3.2c-2,0-3.5-1.6-3.5-3.5     c0-2,1.6-3.5,3.5-3.5h3.2l3.9-2.1c0.5-0.3,1.1-0.1,1.4,0.4c0.3,0.5,0.1,1.1-0.4,1.4l-3.6,1.9v0.9h3.5c0.6,0,1,0.4,1,1     c0,0.5-0.4,1-1,1H27.6z" id="svg_11" fill="#ac2332"/></g></g></g></g></svg>